<svg width="38" height="38" viewBox="0 0 38 38" fill="none" xmlns="http://www.w3.org/2000/svg">
<rect width="38" height="38" rx="7" fill="url(#paint0_linear_180_2583)"/>
<g clip-path="url(#clip0_180_2583)">
<path d="M17.3405 22.8724C16.7093 26.1772 15.9401 29.3452 13.6589 31C12.9557 26.0056 14.6921 22.2556 15.4997 18.274C14.1233 15.958 15.6653 11.2996 18.5657 12.448C22.1357 13.8592 15.4745 21.0544 19.9457 21.9544C24.6149 22.8916 26.5205 13.8544 23.6249 10.9156C19.4429 6.67003 11.4497 10.816 12.4337 16.894C12.6725 18.3796 14.2073 18.8296 13.0469 20.8804C10.3697 20.2876 9.57052 18.1756 9.67372 15.3604C9.83932 10.7524 13.8125 7.52803 17.7989 7.08043C22.8401 6.51523 27.5717 8.93202 28.2257 13.6732C28.9613 19.0264 25.9505 24.8248 20.5589 24.4072C19.0973 24.2932 18.4853 23.5684 17.3405 22.8724Z" fill="white"/>
</g>
<defs>
<linearGradient id="paint0_linear_180_2583" x1="38" y1="19" x2="0" y2="19" gradientUnits="userSpaceOnUse">
<stop stop-color="#FF3C71"/>
<stop offset="1" stop-color="#FE823F"/>
</linearGradient>
<clipPath id="clip0_180_2583">
<rect width="24" height="24" fill="white" transform="translate(7 7)"/>
</clipPath>
</defs>
</svg>
